<?xml version="1.0" encoding="UTF-8" standalone="no"?>
<!-- Created with Inkscape (http://www.inkscape.org/) -->

<svg
   width="210mm"
   height="297mm"
   viewBox="0 0 210 297"
   version="1.1"
   id="svg1"
   xml:space="preserve"
   inkscape:version="1.3.1 (91b66b0783, 2023-11-16)"
   sodipodi:docname="toolbar-icon-paste-hover.svg"
   xmlns:inkscape="http://www.inkscape.org/namespaces/inkscape"
   xmlns:sodipodi="http://sodipodi.sourceforge.net/DTD/sodipodi-0.dtd"
   xmlns="http://www.w3.org/2000/svg"
   xmlns:svg="http://www.w3.org/2000/svg"><sodipodi:namedview
     id="namedview1"
     pagecolor="#505050"
     bordercolor="#eeeeee"
     borderopacity="1"
     inkscape:showpageshadow="0"
     inkscape:pageopacity="0"
     inkscape:pagecheckerboard="0"
     inkscape:deskcolor="#505050"
     inkscape:document-units="mm"
     inkscape:zoom="0.76167929"
     inkscape:cx="397.14878"
     inkscape:cy="561.25984"
     inkscape:window-width="1920"
     inkscape:window-height="1111"
     inkscape:window-x="-9"
     inkscape:window-y="-9"
     inkscape:window-maximized="1"
     inkscape:current-layer="layer1" /><defs
     id="defs1" /><g
     inkscape:label="Capa 1"
     inkscape:groupmode="layer"
     id="layer1"><path
       d="m 129.81498,117.0733 13.39988,43.76762 -43.767605,13.39924 -6.321716,-20.64847 -0.205322,-0.67418 -0.75825,-2.47423 -0.963563,-3.1484 -5.150231,-16.82121 17.451237,-5.34327 6.29729,-1.92746 0.26999,-0.0808 z m -26.27661,-15.27691 4.56061,14.89568 -0.26999,0.0808 -3.1489,0.96357 -3.1484,0.96357 -17.451232,5.34327 -6.427448,1.96772 1.967715,6.42744 5.149585,16.8212 0.963572,3.14825 0.758241,2.47423 -13.320997,4.07851 -6.321716,-20.64847 -0.963563,-3.14906 -0.963571,-3.14824 -5.150231,-16.8212 17.451238,-5.34344 3.148411,-0.96356 3.148885,-0.96357 z"
       id="Combined-Shape"
       style="fill:#72aee6;fill-rule:evenodd;stroke:none;stroke-width:4.27758" /></g></svg>
